<?xml version="1.0" encoding="UTF-8" standalone="no"?>
<!-- Created with Inkscape (http://www.inkscape.org/) -->

<svg
   width="541.86664mm"
   height="541.86664mm"
   viewBox="0 0 541.86663 541.86662"
   version="1.1"
   id="svg5"
   xml:space="preserve"
   xmlns="http://www.w3.org/2000/svg"
   xmlns:svg="http://www.w3.org/2000/svg"><defs
     id="defs2"><filter
       style="color-interpolation-filters:sRGB"
       id="filter3605"
       x="-0.042053808"
       y="-0.046658836"
       width="1.0841076"
       height="1.0933177"><feGaussianBlur
         stdDeviation="6.9111118"
         id="feGaussianBlur3607" /></filter></defs><g
     id="layer1"
     transform="translate(248.00902,7.3917503)"><ellipse
       style="fill:#f0ad21;stroke-width:0.2594"
       id="path229"
       cx="-249.52481"
       cy="92.621422"
       rx="264.86438"
       ry="265.59805"
       transform="rotate(-75)" /><circle
       style="fill:#3d3b35;fill-opacity:1;stroke-width:0.26613"
       id="path683"
       cx="270.90439"
       cy="272.77527"
       r="257.4967"
       transform="translate(-248.00902,-7.3917503)" /><path
       style="opacity:0.735016;fill:#000000;fill-opacity:0.992983;stroke-width:0.264583;filter:url(#filter3605)"
       d="m -147.90556,75.049486 c 10.00938,-0.03118 30.02787,-0.09355 40.69196,0.06241 10.664094,0.155956 11.973684,0.530125 13.252141,0.935501 1.278456,0.405375 2.525686,0.841906 3.648208,1.496792 1.122522,0.654886 2.12031,1.52795 2.96219,2.401062 0.84188,0.873112 1.527859,1.746176 13.127557,21.733879 11.599698,19.98771 34.11207,59.08814 56.625073,98.18967 -41.783136,72.46568 -83.566329,144.93146 -104.987989,182.04908 -21.42166,37.11762 -22.48181,38.88713 -23.27303,40.11488 -0.79123,1.22775 -1.31351,1.91374 -1.90593,2.48667 -0.59241,0.57292 -1.25499,1.03283 -1.99164,1.48496 -0.73665,0.45214 -1.54735,0.89647 -2.28787,1.21608 -0.74053,0.31961 -1.41092,0.51449 -2.11637,0.63924 -0.70546,0.12474 -1.446,0.1793 -5.38662,0.22998 -3.94061,0.0507 -11.08102,0.0974 -14.69815,0.14419 -3.61713,0.0467 -3.71067,0.0935 -3.7614,0.19502 -0.0507,0.10151 -0.0585,0.2574 -0.0312,0.38604 0.0274,0.12864 0.0898,0.22999 0.20284,0.30004 0.1131,0.07 0.2768,0.10902 7.73574,0.13209 7.45894,0.0231 22.21256,0.0303 29.99742,8.3e-4 7.78486,-0.0295 8.60065,-0.0956 9.4054,-0.21689 0.80476,-0.12128 1.59849,-0.29767 2.40325,-0.54572 0.80476,-0.24806 1.62054,-0.56776 2.46386,-1.02526 0.84332,-0.45751 1.71424,-1.05281 2.4363,-1.6481 0.72206,-0.59529 1.29532,-1.1906 1.85204,-1.85205 0.55672,-0.66145 1.0969,-1.38904 1.54337,-2.08354 0.44648,-0.69451 0.79925,-1.35597 19.99049,-34.60669 19.191237,-33.25072 57.21946,-99.08815 95.2483952,-164.92681 38.0608218,65.89378 76.1218228,131.78788 95.3617008,165.08755 19.239884,33.29968 19.658794,34.00521 20.022614,34.57848 0.36382,0.57327 0.67249,1.01422 0.95913,1.40006 0.28665,0.38585 0.55124,0.71659 0.87096,1.08038 0.31972,0.3638 0.69453,0.76066 1.13553,1.14649 0.441,0.38583 0.9481,0.76065 1.45523,1.11342 0.50713,0.35277 1.01423,0.6835 1.51035,0.95908 0.49612,0.27559 0.98117,0.49607 1.48828,0.67243 0.50711,0.17635 1.03628,0.30864 1.58749,0.4299 0.55122,0.12125 1.12447,0.23149 1.83002,0.30864 0.70555,0.0772 1.54338,0.12125 17.24229,0.14329 15.69891,0.022 46.25768,0.022 61.56766,0.0193 15.30999,-0.003 15.37064,-0.008 15.47262,-0.0137 0.10198,-0.005 0.2453,-0.0109 0.33615,-0.0261 0.0909,-0.0152 0.12941,-0.0399 0.15965,-0.0674 0.0302,-0.0275 0.0524,-0.0579 0.0703,-0.0965 0.0179,-0.0385 0.0317,-0.0853 0.0399,-0.13491 0.008,-0.0496 0.0109,-0.10199 0.0109,-0.16675 1e-5,-0.0648 -0.003,-0.14189 -0.004,-0.20392 -0.001,-0.062 -0.001,-0.10893 -0.01,-0.14885 -0.008,-0.0399 -0.0247,-0.073 -0.0467,-0.0992 -0.022,-0.0262 -0.0496,-0.0455 -0.0868,-0.069 -0.0372,-0.0235 -0.084,-0.051 -0.13364,-0.0717 -0.0496,-0.0207 -0.10201,-0.0345 -11.44076,-0.0704 -11.33875,-0.0359 -33.96293,-0.0937 -45.7052,-0.1337 -11.74227,-0.04 -12.60214,-0.062 -13.57227,-0.26588 -0.97012,-0.20389 -2.0505,-0.58974 -3.01513,-1.01966 -0.96463,-0.42992 -1.81349,-0.90395 -2.67893,-1.55436 -0.86544,-0.6504 -1.74736,-1.4772 -2.48052,-2.37016 -0.73317,-0.89295 -1.31744,-1.85205 -34.05481,-58.56232 C 70.395732,307.49721 5.5080234,195.0405 -27.145946,138.45823 -59.799915,81.875957 -60.218831,81.170415 -60.659782,80.5365 c -0.44095,-0.633916 -0.903963,-1.196145 -1.389018,-1.714308 -0.485056,-0.518162 -0.992164,-0.992198 -1.598491,-1.460763 -0.606328,-0.468565 -1.311869,-0.931577 -1.973329,-1.322961 -0.66146,-0.391385 -1.278809,-0.711084 -2.083591,-1.069395 -0.804783,-0.358312 -1.796951,-0.755179 -16.867498,-0.959192 -15.070547,-0.204013 -44.218221,-0.215037 -58.835101,-0.21505 -14.61689,-1.3e-5 -14.7023,0.01101 -14.76994,0.04893 -0.0677,0.03792 -0.11729,0.102733 -0.15106,0.172392 -0.0338,0.06966 -0.0517,0.144064 -0.0558,0.238513 -0.004,0.09445 0.006,0.20882 0.0138,0.319743 0.008,0.110922 0.0152,0.218413 0.0249,0.294228 0.01,0.07581 0.0221,0.119915 0.0608,0.152874 0.0387,0.03296 0.10348,0.05502 0.1694,0.06301 0.0659,0.008 0.13297,0.0021 0.1664,-8.99e-4 0.0334,-0.003 0.0335,-0.0029 10.04287,-0.03413 z"
       id="path809-4"
       transform="translate(1.0625e-6)" /><path
       style="fill:#f0ad22;fill-opacity:1;stroke-width:0.264583"
       d="m -143.51987,77.515323 c 10.00938,-0.03118 30.02787,-0.09354 40.69196,0.06241 10.664091,0.155956 11.973686,0.530126 13.252138,0.9355 1.278453,0.405373 2.525686,0.841905 3.64821,1.496792 1.122524,0.654887 2.120309,1.527949 2.962189,2.401061 0.84188,0.873112 1.527859,1.746177 13.127558,21.733883 11.599698,19.98771 34.112069,59.08814 56.625072,98.18967 -41.783136,72.46568 -83.566327,144.93146 -104.987987,182.04908 -21.42166,37.11762 -22.48181,38.88713 -23.27303,40.11488 -0.79123,1.22775 -1.31351,1.91374 -1.90593,2.48667 -0.59241,0.57292 -1.25499,1.03283 -1.99164,1.48496 -0.73665,0.45214 -1.54735,0.89647 -2.28787,1.21608 -0.74053,0.31961 -1.41092,0.51449 -2.11637,0.63924 -0.70546,0.12474 -1.446,0.1793 -5.38662,0.22998 -3.94061,0.0507 -11.08102,0.0974 -14.69815,0.14419 -3.61713,0.0467 -3.71067,0.0935 -3.7614,0.19502 -0.0507,0.10151 -0.0585,0.2574 -0.0312,0.38604 0.0274,0.12864 0.0897,0.22999 0.20284,0.30004 0.1131,0.07 0.2768,0.10902 7.73574,0.13209 7.45894,0.0231 22.21256,0.0303 29.99742,8.3e-4 7.78486,-0.0295 8.60065,-0.0956 9.4054,-0.21689 0.80476,-0.12128 1.59849,-0.29767 2.40325,-0.54572 0.80476,-0.24806 1.62054,-0.56776 2.46386,-1.02526 0.84332,-0.45751 1.71424,-1.05281 2.4363,-1.6481 0.72206,-0.59529 1.29532,-1.1906 1.85204,-1.85205 0.55672,-0.66145 1.0969,-1.38904 1.54337,-2.08354 0.44648,-0.69451 0.79925,-1.35597 19.99049,-34.60669 19.191236,-33.25072 57.219459,-99.08815 95.24839313,-164.92681 C 37.687025,290.70246 75.748027,356.59656 94.987906,389.89623 c 19.239884,33.29968 19.658794,34.00521 20.022614,34.57848 0.36382,0.57327 0.67249,1.01422 0.95913,1.40006 0.28665,0.38585 0.55124,0.71659 0.87096,1.08038 0.31972,0.3638 0.69453,0.76066 1.13553,1.14649 0.441,0.38583 0.9481,0.76065 1.45523,1.11342 0.50713,0.35277 1.01423,0.6835 1.51035,0.95908 0.49612,0.27559 0.98117,0.49607 1.48828,0.67243 0.50711,0.17635 1.03628,0.30864 1.58749,0.4299 0.55122,0.12125 1.12447,0.23149 1.83002,0.30864 0.70555,0.0772 1.54338,0.12125 17.24229,0.14329 15.69891,0.022 46.25768,0.022 61.56766,0.0193 15.30999,-0.003 15.37064,-0.008 15.47262,-0.0137 0.10198,-0.005 0.2453,-0.0109 0.33615,-0.0261 0.0909,-0.0152 0.12941,-0.0399 0.15965,-0.0674 0.0302,-0.0275 0.0524,-0.0579 0.0703,-0.0965 0.0179,-0.0385 0.0317,-0.0853 0.0399,-0.13491 0.008,-0.0496 0.0109,-0.10199 0.0109,-0.16675 1e-5,-0.0648 -0.003,-0.14189 -0.004,-0.20392 -0.001,-0.062 -0.001,-0.10893 -0.01,-0.14885 -0.008,-0.0399 -0.0247,-0.073 -0.0467,-0.0992 -0.022,-0.0262 -0.0496,-0.0455 -0.0868,-0.069 -0.0372,-0.0235 -0.084,-0.051 -0.13364,-0.0717 -0.0496,-0.0207 -0.10201,-0.0345 -11.44076,-0.0704 -11.33875,-0.0359 -33.96293,-0.0937 -45.7052,-0.1337 -11.74227,-0.04 -12.60214,-0.062 -13.57227,-0.26588 -0.97012,-0.20389 -2.0505,-0.58974 -3.01513,-1.01966 -0.96463,-0.42992 -1.81349,-0.90395 -2.67893,-1.55436 -0.86544,-0.6504 -1.74736,-1.4772 -2.48052,-2.37016 -0.73317,-0.89295 -1.31744,-1.85205 -34.05481,-58.56232 C 74.781422,309.96305 9.8937127,197.50634 -22.760257,140.92407 -55.414227,84.341794 -55.833143,83.636252 -56.274094,83.002337 c -0.44095,-0.633916 -0.903963,-1.196145 -1.389018,-1.714308 -0.485056,-0.518162 -0.992164,-0.992198 -1.598491,-1.460763 -0.606328,-0.468565 -1.311869,-0.931577 -1.973329,-1.322961 -0.66146,-0.391385 -1.278809,-0.711084 -2.083591,-1.069395 -0.804783,-0.358312 -1.796951,-0.755179 -16.867496,-0.959192 -15.070544,-0.204013 -44.218221,-0.215037 -58.835101,-0.21505 -14.61689,-1.3e-5 -14.7023,0.01101 -14.76994,0.04893 -0.0677,0.03792 -0.11729,0.102733 -0.15106,0.172392 -0.0338,0.06966 -0.0517,0.144064 -0.0558,0.238513 -0.004,0.09445 0.006,0.20882 0.0138,0.319743 0.008,0.110922 0.0152,0.218413 0.0249,0.294228 0.01,0.07582 0.0221,0.119915 0.0608,0.152874 0.0387,0.03296 0.10348,0.05502 0.1694,0.06301 0.0659,0.008 0.13297,0.0021 0.1664,-8.99e-4 0.0334,-0.003 0.0335,-0.0029 10.04287,-0.03413 z"
       id="path809" /><path
       style="fill:#f0ad22;fill-opacity:0.719298;stroke:#f0ad22;stroke-width:0.264583;stroke-opacity:1"
       d="m 185.66614,83.745564 c 2.20233,0 6.60671,0 9.10514,0.0273 2.49842,0.0273 3.09086,0.08186 3.68333,0.175433 0.59246,0.09357 1.18489,0.226084 1.81243,0.420999 0.62754,0.194916 1.29013,0.452156 1.97224,0.787392 0.6821,0.335236 1.38366,0.748377 1.9761,1.153767 0.59244,0.405391 1.07574,0.802945 1.56685,1.235603 0.49111,0.432658 0.99,0.900368 1.52785,1.55521 0.53785,0.654842 1.1147,1.496727 16.94542,28.835235 15.83072,27.3385 46.91408,81.17145 62.61785,108.33049 15.70377,27.15904 16.02728,27.64308 16.30992,27.98641 0.28264,0.34334 0.52429,0.54601 0.76986,0.71748 0.24557,0.17146 0.49502,0.31178 0.70159,0.42481 0.20657,0.11302 0.37027,0.19878 0.58465,0.28059 0.21437,0.0818 0.47942,0.15977 0.80289,0.1909 0.32348,0.0311 0.70546,0.0155 1.0757,-0.0469 0.37024,-0.0624 0.7288,-0.17152 1.10295,-0.33523 0.37414,-0.1637 0.7639,-0.38196 1.16532,-0.71324 0.40142,-0.33128 0.81456,-0.77561 16.71739,-28.21189 15.90283,-27.43628 47.29412,-81.86241 63.04076,-109.14229 15.74664,-27.279886 15.84799,-27.412402 16.04287,-27.669654 0.19489,-0.257251 0.48331,-0.639224 0.85752,-1.029029 0.37421,-0.389805 0.83411,-0.787352 1.31355,-1.181028 0.47943,-0.393676 0.97833,-0.783439 1.48504,-1.142034 0.50672,-0.358596 1.02121,-0.686 1.57081,-0.993924 0.5496,-0.307923 1.13423,-0.596334 1.75011,-0.826298 0.61588,-0.229964 1.26289,-0.40146 1.83975,-0.545673 0.57686,-0.144213 1.08354,-0.261141 1.5669,-0.323486 0.48336,-0.06235 0.94327,-0.07014 6.37674,-0.07794 5.43347,-0.0078 15.84008,-0.01559 21.12146,-0.01168 5.28137,0.0039 5.43726,0.0195 5.53077,0.04691 0.0935,0.02741 0.12469,0.0664 0.15973,0.117071 0.0351,0.05067 0.074,0.113045 0.0934,0.179289 0.0194,0.06624 0.0194,0.136396 0.0194,0.222146 0,0.08575 0,0.187088 -0.008,0.280604 -0.008,0.09351 -0.0234,0.179259 -0.0467,0.225903 -0.0233,0.04664 -0.0545,0.05444 -0.12461,0.05836 -0.0702,0.0039 -0.17927,0.0039 -3.03243,0.02341 -2.85316,0.01949 -8.45013,0.05846 -11.38509,0.08574 -2.93497,0.02728 -3.20778,0.04287 -3.51184,0.09352 -0.30407,0.05066 -0.63924,0.136398 -0.97837,0.245531 -0.33912,0.109134 -0.68212,0.241656 -1.02513,0.381972 -0.343,0.140316 -0.68601,0.288432 -0.97835,0.428751 -0.29234,0.140318 -0.53398,0.272831 -0.76786,0.413155 -0.23388,0.140323 -0.45994,0.288433 -0.76007,0.495018 -0.30014,0.206585 -0.6743,0.471609 -1.00172,0.728868 -0.32743,0.25726 -0.60806,0.50672 -0.86531,0.744481 -0.25725,0.237761 -0.49112,0.463827 -0.72499,0.713295 -0.23388,0.249468 -0.46773,0.522307 -0.66652,0.783474 -0.1988,0.261168 -0.3625,0.510612 -17.85954,30.815685 -17.49703,30.30508 -52.32601,90.66335 -69.80321,120.95614 -17.4772,30.29278 -17.60193,30.51885 -17.72276,30.74882 -0.12083,0.22997 -0.23776,0.4638 -0.33131,0.68211 -0.0936,0.21831 -0.16372,0.42097 -0.22608,0.61587 -0.0624,0.19489 -0.11692,0.38196 -0.16758,0.56907 -0.0507,0.18711 -0.0974,0.37421 -0.13251,0.60029 -0.0351,0.22607 -0.0585,0.49111 -0.0663,0.70551 -0.008,0.2144 -3e-5,0.37811 0.008,0.57688 0.008,0.19878 0.0155,0.43265 0.035,0.67822 0.0195,0.24556 0.0506,0.50279 0.12083,0.83021 0.0702,0.32742 0.17932,0.72498 0.32746,1.12645 0.14815,0.40146 0.33523,0.80682 15.0181,26.25917 14.68287,25.45236 43.86033,75.9497 58.50781,101.29632 14.64749,25.34661 14.76442,25.54149 14.95154,25.77924 0.18713,0.23774 0.44437,0.51837 0.72111,0.79119 0.27675,0.27282 0.57298,0.53787 0.86531,0.78731 0.29233,0.24944 0.58077,0.4833 0.8848,0.72496 0.30402,0.24166 0.62361,0.49111 0.98611,0.74834 0.36249,0.25724 0.76784,0.52227 1.13034,0.74053 0.36249,0.21826 0.68208,0.38974 1.03679,0.55733 0.3547,0.16759 0.74446,0.33129 1.16541,0.47939 0.42095,0.14809 0.87307,0.28061 1.3018,0.37413 0.42873,0.0935 0.8341,0.14808 1.22776,0.19095 0.39365,0.0429 0.77562,0.0741 1.04457,0.0975 0.26894,0.0234 0.42485,0.039 0.53003,0.0898 0.10518,0.0508 0.15976,0.13659 0.18695,0.21841 0.0272,0.0818 0.0272,0.1598 0.008,0.21029 -0.0194,0.0505 -0.0585,0.0739 -0.19478,0.0856 -0.1363,0.0117 -0.37017,0.0117 -0.83399,10e-6 -0.46382,-0.0117 -1.15759,-0.035 -1.86306,-0.12855 -0.70546,-0.0935 -1.42264,-0.25722 -1.9956,-0.39753 -0.57295,-0.1403 -1.00168,-0.25723 -1.37196,-0.38582 -0.37028,-0.12859 -0.6821,-0.26891 -1.0368,-0.46767 -0.3547,-0.19876 -0.75223,-0.45599 -1.20828,-0.79898 -0.45605,-0.34298 -0.97053,-0.77171 -1.36421,-1.11081 -0.39369,-0.3391 -0.66652,-0.58854 -0.94327,-0.86137 -0.27674,-0.27282 -0.55737,-0.56905 -0.83023,-0.90424 -0.27285,-0.33519 -0.53789,-0.70936 -0.84582,-1.17319 -0.30792,-0.46383 -0.65871,-1.01728 -1.12644,-1.80852 -0.46774,-0.79123 -1.05238,-1.82019 -15.49357,-26.8282 -14.44119,-25.00801 -42.73778,-73.99309 -56.97991,-98.64592 -14.24213,-24.65284 -14.42922,-24.97243 -14.58128,-25.31933 -0.15205,-0.3469 -0.26897,-0.72105 -0.35086,-1.16152 -0.0819,-0.44047 -0.12865,-0.94714 -0.14817,-1.50843 -0.0195,-0.56128 -0.0118,-1.1771 0.008,-1.67993 0.0195,-0.50282 0.0506,-0.89258 0.14415,-1.28629 0.0935,-0.39372 0.24942,-0.79127 0.46381,-1.25123 0.21438,-0.45996 0.48721,-0.98222 0.77174,-1.51232 0.28453,-0.53009 0.58074,-1.06796 17.90628,-31.11578 17.32553,-30.04782 51.67901,-89.60319 68.94964,-119.5218 17.27063,-29.918607 17.45771,-30.199234 17.6604,-30.468197 0.20269,-0.268963 0.42096,-0.526202 0.67821,-0.830228 0.25725,-0.304026 0.55346,-0.654804 0.85751,-0.95106 0.30406,-0.296255 0.61587,-0.537904 0.90429,-0.783446 0.28841,-0.245541 0.55344,-0.494984 0.8614,-0.72887 0.30795,-0.233886 0.65873,-0.452152 1.00174,-0.650943 0.34302,-0.198791 0.6782,-0.378075 0.94325,-0.514495 0.26506,-0.136419 0.45995,-0.229962 0.65876,-0.304014 0.19882,-0.07405 0.40149,-0.128617 0.5691,-0.17149 0.16761,-0.04287 0.29995,-0.07401 0.43247,-0.105192 -3.85091,0.0078 -7.70157,0.01559 -9.89598,0.03508 -2.19441,0.01948 -2.73228,0.05067 -3.25849,0.116917 -0.52622,0.06625 -1.0407,0.167589 -1.49674,0.284512 -0.45605,0.116924 -0.85361,0.249446 -1.23172,0.405354 -0.3781,0.155907 -0.73669,0.335199 -1.08359,0.518392 -0.34691,0.183193 -0.6821,0.37028 -0.97834,0.549579 -0.29624,0.179299 -0.55348,0.350789 -0.81074,0.53009 -0.25726,0.1793 -0.51449,0.36638 -0.73278,0.537893 -0.21829,0.171513 -0.39757,0.327415 -0.60026,0.514513 -0.2027,0.187099 -0.42876,0.405362 -0.63534,0.615844 -0.20659,0.210481 -0.39367,0.413155 -0.59636,0.654829 -0.20269,0.241673 -0.42096,0.522298 -0.61585,0.783455 -0.19489,0.261157 -0.36638,0.502812 -16.09769,27.783191 -15.73131,27.28037 -47.02124,81.59738 -62.74057,108.86165 -15.71932,27.26427 -15.86744,27.47474 -16.03502,27.6774 -0.16759,0.20266 -0.35467,0.39753 -0.60022,0.63528 -0.24554,0.23775 -0.54956,0.51839 -0.9042,0.76782 -0.35465,0.24943 -0.76,0.4677 -1.0835,0.62751 -0.32349,0.1598 -0.56515,0.26114 -0.84573,0.31573 -0.28058,0.0546 -0.60017,0.0624 -1.0601,0.0741 -0.45994,0.0117 -1.06015,0.0273 -1.51615,-0.0311 -0.45601,-0.0584 -0.76781,-0.19091 -1.10692,-0.3507 -0.33911,-0.1598 -0.70548,-0.34688 -1.03291,-0.57679 -0.32743,-0.22992 -0.61585,-0.50276 -0.87311,-0.75611 -0.25725,-0.25335 -0.48332,-0.4872 -0.77567,-0.86916 -0.29236,-0.38196 -0.65094,-0.91203 -16.24589,-27.904 C 269.937,199.65407 239.10697,146.20235 223.56303,119.26937 208.01908,92.33639 207.76184,91.923244 207.5046,91.525675 c -0.25725,-0.39757 -0.51449,-0.779534 -0.80291,-1.169313 -0.28841,-0.389779 -0.60802,-0.787333 -0.98217,-1.17323 -0.37416,-0.385897 -0.8029,-0.760063 -1.25503,-1.11867 -0.45213,-0.358606 -0.92763,-0.701592 -1.53567,-1.071901 -0.60804,-0.37031 -1.34858,-0.767864 -2.15151,-1.079725 -0.80293,-0.31186 -1.6682,-0.537922 -2.53741,-0.682168 -0.8692,-0.144245 -1.74227,-0.206606 -2.93888,-0.257282 -1.1966,-0.05068 -2.71667,-0.08965 -4.7357,-0.113042 -2.01902,-0.02339 -4.53688,-0.03119 -5.85818,-0.04286 -1.3213,-0.01168 -1.44602,-0.02727 -1.5324,-0.06394 -0.0864,-0.03667 -0.13438,-0.09468 -0.18047,-0.176036 -0.0461,-0.08135 -0.0902,-0.186085 -0.10132,-0.288129 -0.0111,-0.102045 0.0109,-0.201272 0.044,-0.278527 0.0331,-0.07725 0.0772,-0.132376 0.13512,-0.173746 0.0579,-0.04137 0.12963,-0.06894 0.19724,-0.08187 0.0676,-0.01293 0.13101,-0.0113 0.16258,-0.01048 0.0316,8.13e-4 0.0319,8.12e-4 2.23425,8.12e-4 z"
       id="path2895"
       transform="translate(-248.00902,-7.3917503)" /></g></svg>
