<svg width="1196" height="858" viewBox="0 0 1196 858" fill="none" xmlns="http://www.w3.org/2000/svg">
<g filter="url(#filter0_d_311_217)">
<path d="M246.148 848.493C245.387 848.188 4 849.674 4 848.841C4 847.949 245.332 845.449 246.148 845.267C246.779 845.126 258.426 844.953 272.031 844.883L296.766 844.755L300.841 843.345C308.173 840.808 313.22 837.051 317.399 831.021C319.348 828.209 333.994 803.627 347.005 781.33C351.012 774.463 354.87 767.946 355.579 766.847C356.288 765.748 360.41 758.781 364.738 751.365C372.08 738.784 376.715 730.923 395.211 699.676C399.194 692.946 406.474 680.586 411.389 672.208C419.937 657.637 430.092 640.419 439.959 623.765C442.482 619.508 448.099 609.957 452.443 602.54C456.786 595.124 461.893 586.472 463.791 583.313C465.689 580.154 470.46 572.064 474.393 565.334C478.325 558.605 482.75 551.076 484.225 548.604C485.701 546.132 490.909 537.255 495.8 528.877C500.69 520.499 505.793 511.847 507.139 509.65C509.441 505.892 519.625 488.624 539.243 455.214C550.754 435.611 562.814 415.143 569.257 404.274C574.166 395.994 580.568 385.131 601.489 349.588C605.773 342.309 612.082 331.634 615.509 325.866C618.936 320.098 623.08 313.019 624.717 310.135C626.354 307.251 628.11 304.294 628.62 303.565C629.13 302.836 629.547 301.952 629.547 301.599C629.547 300.849 626.59 295.67 616.026 277.923C611.776 270.781 606.736 262.241 604.826 258.945C602.917 255.649 597.29 246.098 592.322 237.72C587.353 229.342 581.449 219.342 579.2 215.496C576.952 211.651 570.925 201.425 565.807 192.773C560.688 184.121 553.856 172.547 550.624 167.053C547.392 161.56 543.997 155.829 543.081 154.318C542.165 152.808 539.124 147.639 536.323 142.832C533.523 138.025 527.386 127.575 522.685 119.609C517.985 111.644 509.831 97.8223 504.566 88.8953C499.301 79.9683 492.401 68.2821 489.231 62.9259C486.061 57.5697 479.593 46.5577 474.858 38.4547C462.351 17.0518 460.817 14.9976 453.876 10.3501C449.803 7.62311 447.127 6.69983 439.438 5.36952L432.938 4.24503L365.617 4.18531C328.591 4.15228 297.55 4.09632 296.638 4.06047C295.157 4.00224 138 2.48375 138 1.16233C138 -0.115928 175.846 1.6338 177.5 1.16233C178.866 0.772903 333.199 -0.000774845 419.168 0.125984C530.898 0.290719 539.786 0.365081 543.1 1.16231C547.579 2.23968 553.288 4.86276 557.383 7.72424C563.33 11.8794 565.245 14.4531 575.601 32.2121C577.684 35.7829 581.975 43.0868 585.137 48.4429C588.3 53.7991 592.508 60.9907 594.488 64.4241C596.469 67.8576 600.426 74.5997 603.28 79.4065C606.135 84.2133 610.725 91.9667 613.481 96.6362C616.237 101.306 621.754 110.632 625.742 117.362C629.729 124.091 635.448 133.832 638.449 139.009C641.451 144.185 645.151 150.429 646.672 152.885C648.193 155.341 649.437 157.442 649.437 157.555C649.437 157.668 651.574 161.312 654.185 165.653C656.797 169.994 660.434 176.13 662.266 179.289C666.033 185.78 672.454 196.731 677.493 205.258C679.359 208.417 682.376 213.586 684.197 216.745C686.018 219.904 690.047 226.758 693.152 231.977C706.583 254.557 721.022 278.996 725.167 286.163C727.629 290.42 731.257 296.601 733.23 299.897C739.026 309.582 741.39 313.564 744.644 319.124C746.332 322.008 749.974 328.189 752.737 332.858C755.501 337.527 759.063 343.595 760.653 346.342C764.704 353.338 773.631 368.463 780.843 380.552C784.203 386.183 788.7 393.824 790.837 397.532C795.289 405.259 797.593 408.116 800.576 409.606C804.71 411.671 809.933 410.673 813.21 407.191C814.4 405.928 817.459 401.091 821.215 394.535C821.923 393.299 825.704 386.894 829.616 380.302C833.528 373.71 839.61 363.372 843.132 357.329C846.653 351.286 852.221 341.847 855.505 336.354C858.789 330.86 863.419 322.995 865.794 318.875C868.169 314.754 873.325 305.99 877.251 299.397C881.178 292.805 884.974 286.4 885.687 285.164C891.677 274.781 893.463 271.737 896.382 266.936C898.219 263.914 903.462 255.037 908.034 247.209C912.605 239.381 917.262 231.515 918.382 229.729C919.502 227.944 926.197 216.595 933.261 204.509C949.113 177.388 956.091 165.532 963.096 153.819C965.149 150.385 970.782 140.834 975.614 132.594C980.446 124.354 986.532 114.016 989.139 109.621C991.746 105.226 995.25 99.2706 996.925 96.3865C998.601 93.5024 1002.05 87.6593 1004.58 83.4018C1011.35 72.0443 1021.26 55.2216 1026.06 46.9447C1036.53 28.8939 1042.24 19.2361 1043.79 16.9812C1047.57 11.4619 1054.73 5.62356 1060.78 3.12142C1062.2 2.53686 1065.67 1.59541 1068.51 1.0293C1073.42 0.0494435 1075.34 0 1108.36 0C1139.22 0 1143.14 0.0867335 1143.85 0.784795C1145.23 2.13414 1144.86 3.41895 1143 3.71209C1142.09 3.85592 1133.88 4.05842 1124.77 4.16206C1106.72 4.36738 1105.17 4.56707 1099.39 7.43592C1095.55 9.33926 1090.89 13.3736 1088.12 17.1766C1085.71 20.4903 1076.59 35.5909 1072.87 42.4348C1071.6 44.7779 1070.16 47.2568 1069.69 47.9435C1069.21 48.6302 1067.26 51.8889 1065.35 55.185C1063.44 58.4811 1060.91 62.7511 1059.72 64.6738C1058.53 66.5965 1053.83 74.5746 1049.28 82.4029C1044.72 90.2312 1039.11 99.7825 1036.8 103.628C1034.5 107.473 1029.54 115.845 1025.78 122.232C1022.01 128.619 1018.23 135.024 1017.36 136.466C1013.78 142.418 1006.37 155.018 1002.6 161.56C1000.39 165.405 996.902 171.32 994.858 174.703C992.815 178.087 991.143 180.957 991.143 181.082C991.143 181.206 989.802 183.495 988.163 186.167C986.524 188.839 982.124 196.306 978.386 202.761C974.648 209.216 970.288 216.632 968.698 219.242C967.108 221.851 963.955 227.132 961.693 230.978C959.43 234.823 953.966 244.038 949.551 251.454C945.136 258.87 941.138 265.612 940.668 266.436C940.197 267.26 938.474 270.294 936.838 273.178C935.201 276.062 933.467 278.984 932.985 279.671C932.502 280.357 927.294 289.122 921.412 299.148C915.53 309.173 909.506 319.399 908.024 321.871C906.543 324.343 904.874 327.152 904.316 328.114C903.759 329.075 899.978 335.592 895.915 342.596C891.852 349.601 886.626 358.478 884.301 362.323C881.976 366.169 877.446 373.81 874.235 379.303C871.023 384.797 866.829 391.876 864.916 395.035C861.524 400.633 859.11 404.743 852.303 416.509C850.475 419.668 847.421 424.837 845.517 427.996C837.893 440.64 835.423 444.927 833.173 449.423C831.15 453.465 830.791 454.655 830.596 457.955C830.199 464.657 828.888 462.014 852.849 502.814C858.222 511.964 863.804 521.403 865.253 523.789C870.363 532.206 872.705 536.155 874.64 539.614C876.354 542.679 879.257 547.595 891.599 568.331C894.371 572.986 896.022 575.794 914.359 607.035C919.356 615.55 924.993 625.101 926.883 628.26C928.774 631.419 932.567 637.824 935.312 642.493C945.065 659.084 945.892 660.492 946.894 662.22C947.452 663.181 948.495 664.979 949.211 666.215C949.928 667.451 951.741 670.432 953.241 672.84C954.741 675.247 956.956 678.955 958.163 681.08C959.371 683.205 962.553 688.651 965.234 693.184C972.491 705.449 983.111 723.5 987.564 731.139C989.725 734.847 994.668 743.275 998.547 749.867C1002.43 756.459 1007.02 764.325 1008.76 767.346C1010.5 770.368 1013.24 774.975 1014.86 777.584C1018.06 782.755 1024.13 792.989 1027.73 799.309C1028.99 801.506 1031.45 805.664 1033.2 808.548C1034.95 811.432 1037.73 816.151 1039.36 819.035C1049.46 836.834 1055.49 841.773 1069.94 844.095C1072.4 844.49 1091.89 844.76 1132.67 844.962L1191.83 845.254L1191.99 846.316C1192.07 846.9 1191.77 847.742 1191.31 848.189C1190.55 848.932 1181.41 849 1081.44 849C985.577 849 971.862 848.907 967.904 848.231C959.964 846.875 953.829 843.833 948.309 838.512C943.568 833.943 946.528 838.735 910.057 776.585C904.819 767.658 898.112 756.309 895.154 751.365C889.834 742.474 882.541 730.09 865.411 700.863C860.562 692.588 856.02 684.927 855.318 683.839C854.616 682.75 849.866 674.687 844.762 665.922C839.658 657.156 834.042 647.625 832.281 644.741C830.52 641.856 824.604 631.856 819.135 622.517C813.665 613.178 805.88 599.918 801.834 593.051C797.788 586.185 790.043 573.038 784.624 563.836C779.205 554.634 771.843 542.161 768.264 536.118C758.346 519.374 745.858 498.158 733.722 477.438C727.69 467.137 721.316 456.35 719.559 453.466C717.801 450.582 713.891 443.952 710.868 438.733C707.845 433.514 704.812 428.37 704.128 427.301C703.444 426.233 697.997 417.018 692.024 406.825C670.5 370.096 662.323 356.375 661.877 356.234C661.423 356.091 660.837 357.025 654.296 368.316C652.386 371.612 648.467 378.242 645.586 383.049C642.705 387.856 636.859 397.744 632.594 405.023C610.645 442.49 606.715 449.178 603.535 454.465C598.059 463.57 584.666 486.433 584.666 486.675C584.666 486.74 583.033 489.465 581.037 492.728C579.041 495.992 574.993 502.82 572.042 507.902C569.091 512.983 564.258 521.186 561.302 526.13C558.345 531.074 554.103 538.266 551.873 542.111C548.116 548.593 535.697 569.663 514.784 605.037C510.075 613.003 503.178 624.689 499.459 631.007C495.739 637.324 487.659 651.033 481.502 661.471C475.345 671.909 466.632 686.741 462.138 694.432C457.644 702.123 452.47 710.888 450.639 713.909C448.809 716.931 442.896 726.931 437.5 736.133C427.884 752.531 424.395 758.459 412.813 778.083C409.652 783.44 402.93 794.901 397.875 803.553C382.138 830.489 379.893 833.98 375.444 838.434C370.994 842.888 366.341 845.593 359.67 847.602L355.927 848.73L301.611 848.841C269.417 848.908 246.828 848.766 246.148 848.493ZM1056.27 843.824C1056.39 843.709 1055.04 842.756 1053.28 841.706C1048.69 838.98 1044.41 834.432 1040.81 828.455C1034.02 817.218 1019.94 793.341 1014.63 784.077C1012.19 779.819 1009.61 775.437 1008.9 774.338C1007.6 772.326 1005.32 768.454 996.255 752.863C993.539 748.194 990.106 742.351 988.625 739.879C984.174 732.448 978.374 722.634 976.081 718.654C973.556 714.272 967.4 703.845 956.622 685.693C954.094 681.435 949.848 674.243 947.186 669.711C944.523 665.179 940.817 658.913 938.948 655.788C937.08 652.662 935.552 650.054 935.552 649.991C935.552 649.929 934.37 647.879 932.927 645.437C931.483 642.994 927.67 636.5 924.454 631.007C921.238 625.513 918.427 620.794 918.208 620.519C917.988 620.245 913.455 612.603 908.135 603.539C902.815 594.475 896.518 583.8 894.142 579.817C891.766 575.834 887.562 568.643 884.8 563.836C882.037 559.029 878.59 553.186 877.14 550.851C875.689 548.516 872.826 543.685 870.778 540.114C868.73 536.543 866.522 532.793 865.872 531.781C865.221 530.768 863.689 528.183 862.466 526.037C861.244 523.891 856.262 515.393 851.396 507.153C846.529 498.913 841.256 489.923 839.678 487.176C838.1 484.43 835.499 480.009 833.898 477.353C827.576 466.86 826.039 462.056 826.962 455.675C827.572 451.458 828.464 449.499 833.747 440.777C836.091 436.906 840.939 428.683 844.521 422.502C848.102 416.322 852.922 408.119 855.231 404.274C857.541 400.428 862.64 391.776 866.564 385.047C870.488 378.317 875.249 370.227 877.144 367.068C879.04 363.909 881.097 360.426 881.717 359.327C882.696 357.592 886.607 350.938 897.568 332.359C899.026 329.887 903.658 322.021 907.862 314.879C919.295 295.453 920.93 292.702 923.145 289.16C924.261 287.374 926.627 283.329 928.401 280.17C930.176 277.011 932.717 272.629 934.049 270.432C938.538 263.022 948.629 246.002 951.962 240.217C955.395 234.257 965.147 217.645 969.551 210.252C970.941 207.918 973.307 203.872 974.808 201.263C976.309 198.654 980.101 192.249 983.234 187.03C986.368 181.811 990.163 175.406 991.666 172.797C994.809 167.342 1001.67 155.746 1005.85 148.825C1007.43 146.215 1009.07 143.5 1009.49 142.792C1009.92 142.083 1011.4 139.498 1012.78 137.048C1015.61 132.043 1024.28 117.292 1030.82 106.375C1033.2 102.392 1035.61 98.3467 1036.16 97.3854C1041.3 88.4472 1046.41 79.7185 1049.18 75.1616C1051.02 72.1401 1053.08 68.6567 1053.76 67.4207C1055.16 64.8617 1064.73 48.6199 1070.98 38.2051C1073.28 34.3596 1076.27 29.3031 1077.61 26.9683C1084.73 14.6219 1087.13 11.5404 1092.66 7.65907C1094.89 6.09719 1096.71 4.61805 1096.71 4.37209C1096.71 4.1149 1090.7 4.00672 1082.56 4.11741C1071.21 4.27179 1067.82 4.47751 1065.44 5.15528C1060.18 6.65005 1056.91 8.50658 1052.88 12.2714C1049.6 15.3371 1048.14 17.3166 1043.45 25.0543C1034.58 39.6528 1025.08 55.6432 1021.98 61.178C1020.91 63.1007 1018.37 67.3766 1016.35 70.6799C1014.33 73.9833 1012.22 77.4667 1011.67 78.4208C1006.15 87.9502 997.643 102.512 995.48 106.125C993.212 109.914 982.069 128.897 974.667 141.583C973.545 143.506 970.952 147.819 968.905 151.168C966.858 154.517 963.543 160.136 961.538 163.654C957.789 170.231 950.908 181.822 945.665 190.39C944.03 193.062 942.692 195.359 942.692 195.494C942.692 195.629 939.218 201.533 934.971 208.614C930.725 215.696 925.366 224.748 923.063 228.731C917.018 239.183 911.106 249.284 908.007 254.45C906.524 256.922 904.505 260.294 903.52 261.942C901.589 265.172 896.664 273.629 893.196 279.671C892.014 281.731 889.166 286.563 886.869 290.408C884.571 294.254 880.441 301.22 877.69 305.89C873.548 312.922 866.892 324.162 860.515 334.894C859.85 336.015 855.764 342.981 851.435 350.376C847.107 357.771 842.263 365.957 840.672 368.566C839.081 371.175 834.726 378.592 830.995 385.047C819.171 405.504 817.385 408.31 814.799 410.495C811.677 413.133 807.976 414.243 803.631 413.846C796.605 413.204 794.363 410.913 785.222 395.035C783.246 391.601 778.321 383.174 774.279 376.307C770.237 369.44 763.299 357.641 758.86 350.088C754.422 342.534 748.569 332.646 745.853 328.114C737.971 314.957 734.909 309.769 731.409 303.642C729.605 300.484 726.111 294.528 723.645 290.408C721.179 286.288 715.332 276.4 710.652 268.434C702.62 254.762 695.287 242.312 693.298 238.969C692.807 238.145 690.237 233.762 687.586 229.23C684.935 224.698 680.224 216.72 677.117 211.501C664.025 189.505 645.734 158.564 643.313 154.318C642.295 152.533 638.859 146.69 635.677 141.334C632.496 135.977 627.788 127.999 625.215 123.604C622.643 119.21 617.939 111.232 614.762 105.875C611.584 100.519 605.614 90.4061 601.493 83.4018C597.373 76.3976 590.687 65.0484 586.636 58.1815C562.334 16.9945 562.956 17.9982 559.233 13.9252C555.249 9.56688 547.963 5.60716 541.883 4.497C538.721 3.91959 512.754 3.8063 512.756 4.36989C512.756 4.57589 513.833 5.41013 515.148 6.22378C519.483 8.90567 523.813 13.3658 527.208 18.6464C530.635 23.9761 536.291 33.4752 549.855 56.6833C554.35 64.3742 559.233 72.6894 560.706 75.1615C562.18 77.6336 566.882 85.6117 571.155 92.8906C575.428 100.17 580.6 108.934 582.647 112.368C584.694 115.801 589.73 124.341 593.838 131.345C607.397 154.465 615.356 167.944 620.375 176.292C623.1 180.825 628.724 190.376 632.874 197.517C637.024 204.659 642.368 213.761 644.751 217.744C647.133 221.726 653.039 231.727 657.875 239.967C662.712 248.208 671.65 263.377 677.738 273.678C688.934 292.618 703.206 316.86 720.078 345.593C725.159 354.245 731.285 364.583 733.691 368.566C736.097 372.549 738.641 376.819 739.345 378.055C740.048 379.291 743.669 385.471 747.392 391.789C751.115 398.106 758.789 411.141 764.447 420.755C770.104 430.368 776.335 440.931 778.293 444.227C780.25 447.523 783.539 453.141 785.6 456.712C787.661 460.283 792.033 467.699 795.315 473.193C798.597 478.686 804.79 489.136 809.079 496.415C813.367 503.694 818.473 512.347 820.426 515.643C822.379 518.939 826.727 526.355 830.088 532.123C833.449 537.891 837.644 544.971 839.409 547.855C841.175 550.739 845.895 558.717 849.897 565.584C853.9 572.451 860.769 584.137 865.162 591.553C869.555 598.97 873.922 606.386 874.866 608.034C875.811 609.682 880.061 616.873 884.311 624.015C888.561 631.157 893.593 639.697 895.494 642.993C897.394 646.289 901.297 652.918 904.168 657.725C910.998 669.162 935.29 710.397 940.65 719.652C942.957 723.635 946.815 730.153 949.224 734.135C951.632 738.118 956.62 746.546 960.307 752.863C963.994 759.181 972.713 774.013 979.682 785.824C986.651 797.636 994.869 811.569 997.943 816.788C1001.02 822.007 1004.62 827.85 1005.96 829.773C1012.11 838.648 1020.27 843.167 1031.69 844.025C1036.66 844.399 1055.84 844.242 1056.27 843.824Z" fill="#F0AD21" fill-opacity="0.62" shape-rendering="crispEdges"/>
</g>
<defs>
<filter id="filter0_d_311_217" x="0" y="0" width="1196" height="857.098" filterUnits="userSpaceOnUse" color-interpolation-filters="sRGB">
<feFlood flood-opacity="0" result="BackgroundImageFix"/>
<feColorMatrix in="SourceAlpha" type="matrix" values="0 0 0 0 0 0 0 0 0 0 0 0 0 0 0 0 0 0 127 0" result="hardAlpha"/>
<feOffset dy="4"/>
<feGaussianBlur stdDeviation="2"/>
<feComposite in2="hardAlpha" operator="out"/>
<feColorMatrix type="matrix" values="0 0 0 0 1 0 0 0 0 1 0 0 0 0 1 0 0 0 0.25 0"/>
<feBlend mode="normal" in2="BackgroundImageFix" result="effect1_dropShadow_311_217"/>
<feBlend mode="normal" in="SourceGraphic" in2="effect1_dropShadow_311_217" result="shape"/>
</filter>
</defs>
</svg>
