<?xml version="1.0" encoding="UTF-8" standalone="no"?>
<!-- Created with Inkscape (http://www.inkscape.org/) -->

<svg
   width="188.0706mm"
   height="172.18584mm"
   viewBox="0 0 188.0706 172.18583"
   version="1.1"
   id="svg5"
   xml:space="preserve"
   inkscape:export-filename="cpa-lambda.svg"
   inkscape:export-xdpi="96"
   inkscape:export-ydpi="96"
   xmlns:inkscape="http://www.inkscape.org/namespaces/inkscape"
   xmlns:sodipodi="http://sodipodi.sourceforge.net/DTD/sodipodi-0.dtd"
   xmlns="http://www.w3.org/2000/svg"
   xmlns:svg="http://www.w3.org/2000/svg"><sodipodi:namedview
     id="namedview7"
     pagecolor="#505050"
     bordercolor="#eeeeee"
     borderopacity="1"
     inkscape:showpageshadow="0"
     inkscape:pageopacity="0"
     inkscape:pagecheckerboard="0"
     inkscape:deskcolor="#505050"
     inkscape:document-units="mm"
     showgrid="false" /><defs
     id="defs2" /><g
     inkscape:label="Layer 1"
     inkscape:groupmode="layer"
     id="layer1"
     transform="translate(-14.616177,-38.391452)"><path
       style="fill:#f0ad21;fill-opacity:1;stroke-width:0.101286"
       d="m 14.84407,210.47449 c -0.151152,-0.0618 -0.227893,-0.17893 -0.227893,-0.34777 0,-0.18105 0.06581,-0.26957 0.227893,-0.30655 0.125341,-0.0286 2.438455,-0.0637 5.140254,-0.0779 l 4.91236,-0.0259 0.809314,-0.28599 c 1.45601,-0.51452 2.458418,-1.27643 3.288316,-2.49937 0.387034,-0.57033 3.295632,-5.55583 5.879588,-10.07793 0.795785,-1.39268 1.562087,-2.71446 1.702894,-2.93729 0.140806,-0.22283 0.959302,-1.63577 1.818878,-3.13986 1.458172,-2.55152 2.378545,-4.14583 6.051754,-10.48308 0.791084,-1.36482 2.23692,-3.87165 3.212971,-5.57072 1.697642,-2.95518 3.714304,-6.44714 5.673934,-9.82472 0.500971,-0.86346 1.61658,-2.80055 2.479132,-4.30464 0.862553,-1.5041 1.876745,-3.25888 2.253761,-3.89951 0.377015,-0.64063 1.324475,-2.28146 2.105465,-3.64629 0.780992,-1.36482 1.659719,-2.89171 1.952727,-3.39307 0.29301,-0.50137 1.327393,-2.30172 2.29863,-4.00079 0.971236,-1.69907 1.9846,-3.45384 2.251918,-3.8995 0.457171,-0.76217 2.479645,-4.26425 6.375767,-11.04015 2.286,-3.97568 4.68102,-8.12675 5.960715,-10.33115 0.974847,-1.67928 2.246316,-3.88231 6.401012,-11.0908 0.850847,-1.47624 2.103832,-3.64122 2.784411,-4.81107 0.680578,-1.16985 1.503434,-2.60558 1.828567,-3.19051 0.325135,-0.58492 0.67397,-1.18448 0.77519,-1.332346 0.101219,-0.147867 0.184035,-0.32728 0.184035,-0.398694 0,-0.152286 -0.587263,-1.202513 -2.685105,-4.801889 -0.844171,-1.448387 -1.845079,-3.180374 -2.22424,-3.84886 -0.379161,-0.668486 -1.496704,-2.605577 -2.483429,-4.304646 -0.986725,-1.699069 -2.159344,-3.727317 -2.605822,-4.507218 -0.446477,-0.779901 -1.643463,-2.853727 -2.659969,-4.608503 -1.016508,-1.754777 -2.373369,-4.102075 -3.015249,-5.216219 -0.641879,-1.114143 -1.315937,-2.276398 -1.497906,-2.582787 -0.181968,-0.30639 -0.785889,-1.354698 -1.342046,-2.329574 -0.556157,-0.974875 -1.774991,-3.09428 -2.708522,-4.709789 -0.93353,-1.615508 -2.552793,-4.418592 -3.598361,-6.229076 -1.045569,-1.810484 -2.416076,-4.180571 -3.045573,-5.266861 -0.629496,-1.08629 -1.913953,-3.319642 -2.854348,-4.963004 -2.483939,-4.340737 -2.788507,-4.757348 -4.166978,-5.699903 -0.808848,-0.553066 -1.340393,-0.740317 -2.867387,-1.010117 l -1.290737,-0.228057 -13.369725,-0.01211 c -7.353348,-0.0067 -13.517855,-0.01805 -13.698903,-0.02532 -0.294262,-0.01181 -0.329179,-0.04501 -0.329179,-0.313007 0,-0.259244 0.05137,-0.314747 0.379822,-0.410365 0.271289,-0.07898 7.210124,-0.100288 24.283268,-0.07458 22.189138,0.03341 23.954296,0.04849 24.612448,0.210177 0.889395,0.2185 2.023291,0.750489 2.836561,1.330827 1.180962,0.842717 1.561207,1.36467 3.618021,4.966378 0.413563,0.724193 1.265772,2.205498 1.893799,3.291788 0.628026,1.08629 1.463728,2.544805 1.857114,3.241145 0.393387,0.69634 1.179073,2.063698 1.74597,3.038574 0.566896,0.974876 1.478543,2.547338 2.025883,3.49436 0.547339,0.947022 1.643061,2.838534 2.434937,4.20336 0.791877,1.364826 1.927534,3.340409 2.523682,4.390183 0.596148,1.049776 1.331003,2.316184 1.633012,2.814242 0.302009,0.498059 0.549108,0.924301 0.549108,0.947205 0,0.0229 0.424355,0.761955 0.943011,1.642333 0.518657,0.880378 1.240839,2.124843 1.604851,2.765475 0.748038,1.316493 2.023206,3.537519 3.023889,5.266861 0.3707,0.640633 0.96985,1.688941 1.33144,2.329573 0.36159,0.640633 1.16186,2.030781 1.77836,3.089217 2.66739,4.579441 5.53499,9.535905 6.35807,10.989508 0.48892,0.863462 1.2095,2.116873 1.60127,2.78536 1.15111,1.964169 1.62067,2.771909 2.26686,3.899509 0.3352,0.58492 1.05848,1.83834 1.6073,2.78536 0.54881,0.94702 1.25626,2.17764 1.57211,2.73471 0.80443,1.41881 2.57726,4.4864 4.00965,6.93808 0.66722,1.142 1.5603,2.69167 1.98462,3.44372 0.88426,1.5672 1.34186,2.14654 1.93416,2.44871 0.82105,0.41887 1.85841,0.21642 2.50919,-0.48968 0.23624,-0.25632 0.84375,-1.23722 1.5897,-2.56675 0.14066,-0.25068 0.8914,-1.54967 1.66831,-2.88664 0.77692,-1.33697 1.98483,-3.43359 2.68424,-4.65915 0.69939,-1.22556 1.80519,-3.13986 2.45732,-4.254 0.65213,-1.11415 1.57162,-2.7094 2.04332,-3.545 0.47169,-0.83561 1.49564,-2.61318 2.27542,-3.950155 0.77978,-1.336973 1.53365,-2.635963 1.67527,-2.886645 1.18959,-2.105726 1.54431,-2.723122 2.12401,-3.696932 0.36478,-0.612779 1.40606,-2.413133 2.31396,-4.000788 0.9079,-1.587655 1.83269,-3.182906 2.05508,-3.545003 0.22239,-0.362097 1.55214,-2.663816 2.95499,-5.114932 3.14804,-5.500348 4.53384,-7.904874 5.92501,-10.280508 0.40778,-0.69634 1.52652,-2.633431 2.4861,-4.304646 0.95959,-1.671216 2.1683,-3.767832 2.68604,-4.659147 0.51773,-0.891315 1.21357,-2.099148 1.54632,-2.684073 0.33274,-0.584926 1.01716,-1.769969 1.52093,-2.633431 1.34385,-2.303404 3.31204,-5.715219 4.2653,-7.393862 2.07894,-3.660879 3.21361,-5.619593 3.52028,-6.076898 0.75069,-1.119368 2.1724,-2.303452 3.37503,-2.810911 0.28096,-0.118555 0.97179,-0.309493 1.53519,-0.424306 0.97515,-0.198724 1.35525,-0.20875 7.91397,-0.20875 6.12823,0 6.90719,0.01759 7.04877,0.159164 0.27366,0.273661 0.19904,0.534234 -0.17002,0.593686 -0.18105,0.02917 -1.81048,0.07024 -3.62096,0.09126 -3.58447,0.04164 -3.89186,0.08214 -5.03967,0.663971 -0.76151,0.386017 -1.68828,1.204213 -2.23765,1.975509 -0.47867,0.672043 -2.28924,3.734611 -3.02844,5.122625 -0.25308,0.475201 -0.53783,0.977948 -0.63277,1.117216 -0.0949,0.139268 -0.48238,0.800158 -0.86096,1.468644 -0.3786,0.668486 -0.88184,1.53448 -1.11832,1.92443 -0.23648,0.38995 -1.16986,2.007991 -2.07417,3.595646 -0.9043,1.587654 -2.01884,3.524745 -2.47673,4.304646 -0.45791,0.7799 -1.44355,2.477822 -2.19032,3.77316 -0.74678,1.295337 -1.49878,2.594327 -1.67111,2.886645 -0.71178,1.207312 -2.18364,3.762566 -2.93155,5.089347 -0.43963,0.7799 -1.1314,1.979462 -1.53726,2.665694 -0.40587,0.68623 -0.73793,1.268355 -0.73793,1.293611 0,0.02526 -0.26633,0.489312 -0.59185,1.031238 -0.32552,0.541925 -1.19925,2.056415 -1.94161,3.365534 -0.74238,1.309119 -1.60818,2.813213 -1.92401,3.342431 -0.31583,0.529219 -0.94187,1.600316 -1.39121,2.380217 -0.44933,0.7799 -1.53442,2.648623 -2.41131,4.152717 -0.87688,1.504094 -1.67076,2.871452 -1.76417,3.038574 -0.0934,0.167121 -0.43572,0.782432 -0.76067,1.367358 -0.32496,0.584925 -0.66929,1.177447 -0.76518,1.316715 -0.0959,0.139268 -1.1301,1.916834 -2.29822,3.950146 -1.16813,2.033313 -2.3646,4.107143 -2.65882,4.608503 -0.29424,0.50137 -0.62559,1.0711 -0.73636,1.26607 -0.11077,0.19498 -0.86159,1.51676 -1.66848,2.93729 -0.80689,1.42053 -1.84483,3.22089 -2.30652,4.00079 -0.46169,0.7799 -1.3613,2.32957 -1.99914,3.44372 -0.63784,1.11414 -1.47064,2.54987 -1.85067,3.1905 -0.67354,1.13541 -1.15295,1.96895 -2.50493,4.35529 -0.36295,0.64063 -0.9694,1.68894 -1.34766,2.32957 -1.51409,2.56429 -2.00463,3.43384 -2.45144,4.34561 -0.4017,0.81969 -0.47308,1.06104 -0.51183,1.73046 -0.0787,1.35918 -0.3391,0.82307 4.41941,9.09776 1.06718,1.85573 2.17571,3.77003 2.46342,4.254 1.01477,1.70707 1.47995,2.50799 1.86415,3.20955 0.34041,0.62159 0.91701,1.6186 3.36816,5.82393 0.55038,0.94427 0.87829,1.51374 4.51989,7.84965 0.99256,1.72692 2.11189,3.66401 2.48739,4.30464 0.37551,0.64064 1.12877,1.93963 1.67392,2.88665 1.93692,3.36475 2.10106,3.65023 2.30017,4.00079 0.11075,0.19497 0.31781,0.5596 0.46013,0.81028 0.14233,0.25069 0.50248,0.85528 0.80034,1.34354 0.29787,0.48826 0.73775,1.2403 0.97752,1.67121 0.23977,0.43091 0.87168,1.53552 1.40423,2.45469 1.44124,2.48748 3.55033,6.14857 4.43454,7.69772 0.42924,0.75204 1.41082,2.46124 2.18127,3.79821 0.77045,1.33698 1.68304,2.93223 2.02798,3.54501 0.34494,0.61278 0.88979,1.54714 1.21077,2.07635 0.63608,1.04873 1.84093,3.12436 2.55755,4.40594 0.2492,0.44565 0.73783,1.28886 1.08586,1.87378 0.34803,0.58493 0.8987,1.54208 1.22371,2.12701 2.00572,3.60969 3.2026,4.61144 6.07232,5.08234 0.48878,0.0802 4.3584,0.1348 12.45816,0.17575 l 11.74915,0.0594 0.0307,0.21527 c 0.0169,0.1184 -0.0433,0.28932 -0.13384,0.37982 -0.15086,0.15085 -1.96729,0.16455 -21.81921,0.16455 -19.039,0 -21.76265,-0.0188 -22.54866,-0.1559 -1.57699,-0.275 -2.79535,-0.8921 -3.89162,-1.9711 -0.94146,-0.92663 -0.35371,0.0451 -7.59661,-12.55944 -1.04034,-1.81048 -2.37224,-4.1122 -2.95976,-5.11493 -1.05653,-1.8032 -2.50492,-4.31472 -5.90673,-10.24239 -0.96305,-1.67811 -1.86506,-3.23179 -2.00447,-3.45262 -0.1394,-0.22085 -1.0828,-1.85603 -2.09641,-3.63376 -1.01363,-1.77774 -2.12907,-3.71082 -2.47876,-4.29575 -0.3497,-0.58492 -1.52454,-2.61317 -2.61077,-4.50721 -1.08623,-1.89405 -2.6324,-4.58319 -3.43592,-5.97586 -0.80353,-1.39268 -2.34151,-4.05903 -3.41773,-5.92522 -1.07622,-1.86619 -2.53833,-4.39581 -3.24914,-5.62137 -1.96958,-3.39596 -4.44967,-7.69871 -6.85976,-11.90108 -1.19807,-2.08902 -2.46384,-4.27679 -2.81284,-4.86171 -0.34899,-0.58493 -1.12568,-1.9295 -1.72597,-2.98793 -0.6003,-1.05844 -1.20261,-2.10178 -1.33847,-2.31852 -0.13586,-0.21675 -1.21761,-2.08547 -2.40389,-4.15272 -4.274631,-7.4491 -5.898426,-10.2319 -5.987117,-10.26046 -0.0901,-0.029 -0.206534,0.1605 -1.505514,2.4504 -0.379208,0.66849 -1.15762,2.01305 -1.729802,2.98793 -0.572183,0.97488 -1.733201,2.98033 -2.580041,4.45657 -4.358998,7.59876 -5.139559,8.95501 -5.771028,10.0273 -1.087501,1.84668 -3.747384,6.48343 -3.747384,6.5325 0,0.0133 -0.324328,0.56583 -0.720727,1.22776 -0.396399,0.66195 -1.200249,2.04673 -1.786333,3.07732 -0.586084,1.03058 -1.545939,2.6942 -2.133011,3.69693 -0.587071,1.00273 -1.429646,2.46124 -1.872386,3.24114 -0.746188,1.31444 -3.212655,5.5878 -7.365868,12.76201 -0.935232,1.61551 -2.30481,3.9856 -3.043507,5.26687 -0.738696,1.28126 -2.343449,4.06156 -3.566118,6.17843 -1.222669,2.11687 -2.953224,5.12506 -3.845678,6.68486 -0.892455,1.5598 -1.920065,3.33737 -2.283578,3.95015 -0.363514,0.61278 -1.537737,2.64102 -2.609385,4.50721 -1.909792,3.32575 -2.602537,4.52792 -4.902713,8.50801 -0.62779,1.08629 -1.962804,3.4108 -2.966698,5.16558 -3.125226,5.46279 -3.571081,6.17081 -4.45466,7.07403 -0.883717,0.90336 -1.807909,1.45195 -3.132716,1.85954 l -0.7433,0.22869 -10.786937,0.0226 c -6.393694,0.0134 -10.879751,-0.0154 -11.014829,-0.0707 z m 160.88714,-0.9469 c 0.0234,-0.0234 -0.24421,-0.21672 -0.59468,-0.42963 -0.91002,-0.5528 -1.76006,-1.47522 -2.4765,-2.68733 -1.34703,-2.27903 -4.14409,-7.12163 -5.19863,-9.00047 -0.48464,-0.86346 -0.99644,-1.75224 -1.13734,-1.97507 -0.25797,-0.408 -0.71091,-1.19343 -2.51156,-4.35529 -0.53932,-0.94702 -1.22118,-2.13207 -1.51523,-2.63343 -0.88391,-1.50708 -2.03577,-3.49735 -2.49129,-4.30465 -0.50141,-0.88861 -1.72386,-3.0033 -3.86433,-6.68486 -0.50202,-0.86346 -1.34536,-2.32198 -1.87407,-3.24115 -0.52872,-0.91916 -1.26486,-2.18988 -1.63588,-2.8238 -0.37101,-0.63392 -0.67456,-1.16293 -0.67456,-1.17558 0,-0.0126 -0.23462,-0.42833 -0.52138,-0.92376 -0.28676,-0.49543 -1.04392,-1.81236 -1.68257,-2.9265 -0.63865,-1.11415 -1.19688,-2.0713 -1.24053,-2.12701 -0.0436,-0.0557 -0.9438,-1.60538 -2.00036,-3.44371 -1.05658,-1.83834 -2.30709,-4.00332 -2.77895,-4.81108 -0.47185,-0.80775 -1.30676,-2.26627 -1.85535,-3.24114 -0.54861,-0.97488 -1.23319,-2.15992 -1.5213,-2.63343 -0.28811,-0.47352 -0.85663,-1.45346 -1.26336,-2.17765 -0.40675,-0.72419 -0.84524,-1.48474 -0.97443,-1.69009 -0.1292,-0.20537 -0.43354,-0.72953 -0.67631,-1.16479 -0.24277,-0.43528 -1.23213,-2.15877 -2.19859,-3.82998 -0.96646,-1.67122 -2.01364,-3.49436 -2.32708,-4.05143 -0.31344,-0.55707 -0.82995,-1.45363 -1.14779,-1.99233 -1.25555,-2.12798 -1.56083,-3.10226 -1.37755,-4.39643 0.12114,-0.85536 0.29828,-1.25261 1.3474,-3.02153 0.46558,-0.78501 1.42845,-2.45281 2.13971,-3.70622 0.71127,-1.25341 1.66845,-2.91703 2.12708,-3.69693 0.45863,-0.7799 1.47143,-2.53468 2.25066,-3.89951 0.77923,-1.36482 1.72476,-3.00565 2.10118,-3.64629 0.3764,-0.64063 0.78508,-1.3471 0.90816,-1.56993 0.19431,-0.35176 0.97109,-1.70143 3.14785,-5.46943 0.28963,-0.50136 1.20957,-2.09661 2.04431,-3.545 2.2706,-3.939809 2.59528,-4.497788 3.03523,-5.216219 0.22174,-0.362097 0.69151,-1.182511 1.04393,-1.823144 0.35241,-0.640633 0.85709,-1.529415 1.12151,-1.975073 0.89153,-1.502654 2.89551,-4.954557 3.55744,-6.12779 0.68193,-1.208681 2.61853,-4.577883 3.49311,-6.077148 0.27622,-0.473511 0.74607,-1.293926 1.04412,-1.823144 0.29804,-0.529218 1.05109,-1.828209 1.67344,-2.886645 0.62235,-1.058437 1.37589,-2.357427 1.67454,-2.886645 0.62422,-1.106177 1.98693,-3.458 2.817,-4.861718 0.31294,-0.529218 0.63835,-1.079835 0.72312,-1.223592 0.0848,-0.143758 0.37879,-0.667912 0.65338,-1.164787 0.56103,-1.015156 2.28346,-4.006774 3.58173,-6.220913 0.47363,-0.807755 0.95094,-1.628169 1.06069,-1.823145 1.0204,-1.812757 2.0364,-3.583014 2.58682,-4.507217 0.36495,-0.612779 0.77349,-1.319248 0.90787,-1.56993 0.27821,-0.518986 2.17951,-3.812982 3.42005,-5.925219 0.45803,-0.7799 1.0513,-1.805419 1.31837,-2.27893 1.41228,-2.503971 1.88925,-3.128929 2.98873,-3.91611 0.44243,-0.316765 0.80443,-0.61675 0.80443,-0.666634 0,-0.05216 -1.19413,-0.0741 -2.81068,-0.05165 -2.25368,0.03131 -2.92767,0.07303 -3.40098,0.210489 -1.04382,0.303154 -1.69437,0.679679 -2.49356,1.443224 -0.65078,0.621755 -0.94095,1.023214 -1.87382,2.592499 -1.76001,2.960726 -3.64687,6.203736 -4.26256,7.326254 -0.21389,0.38995 -0.71732,1.257142 -1.11872,1.927093 -0.40142,0.669951 -0.81961,1.37642 -0.92932,1.56993 -1.09571,1.932652 -2.78564,4.885863 -3.21521,5.618698 -0.45039,0.768363 -2.66332,4.618405 -4.1334,7.191291 -0.22281,0.38995 -0.73771,1.264731 -1.14425,1.943958 -0.40652,0.679227 -1.06492,1.818693 -1.46311,2.532145 -0.74456,1.334042 -2.11111,3.684681 -3.15231,5.422365 -0.32472,0.541925 -0.59039,1.007741 -0.59039,1.035147 0,0.02741 -0.69,1.224842 -1.53334,2.66097 -0.84333,1.436128 -1.90756,3.272031 -2.36496,4.079785 -1.20038,2.119834 -2.37462,4.168348 -2.99006,5.216219 -0.29445,0.501364 -0.69545,1.185043 -0.89108,1.519287 -0.38343,0.655089 -1.36148,2.370355 -2.05026,3.595645 -0.23486,0.417804 -0.80034,1.397744 -1.25661,2.177645 -0.45627,0.7799 -1.27652,2.192837 -1.82279,3.139859 -0.82269,1.42625 -2.1444,3.70571 -3.41084,5.88244 -0.13216,0.22716 -0.94364,1.64009 -1.80328,3.13986 -0.85964,1.49977 -1.82153,3.15984 -2.13755,3.68906 -0.31601,0.52922 -1.18078,2.03331 -1.92174,3.34243 -2.34829,4.14899 -2.70291,4.718 -3.21663,5.16127 -0.61988,0.53488 -1.35503,0.76014 -2.21781,0.67958 -1.39545,-0.13031 -1.84055,-0.59479 -3.65596,-3.81513 -0.39255,-0.69634 -1.3705,-2.40554 -2.17323,-3.79822 -0.80272,-1.39268 -2.1807,-3.78555 -3.06217,-5.3175 -0.88148,-1.53195 -2.04388,-3.53741 -2.58312,-4.45658 -1.56542,-2.66835 -2.17354,-3.72051 -2.86849,-4.962996 -0.35832,-0.640633 -1.05223,-1.848466 -1.54201,-2.684073 -0.48979,-0.835608 -1.65096,-2.841067 -2.58037,-4.456575 -1.59519,-2.772755 -3.05151,-5.297856 -3.4465,-5.975862 -0.0974,-0.167121 -0.60781,-1.055904 -1.13434,-1.975073 -0.52652,-0.919168 -1.46207,-2.537209 -2.07899,-3.595645 -2.600154,-4.460992 -6.232654,-10.736058 -6.713385,-11.597223 -0.202134,-0.362097 -0.884531,-1.547141 -1.516436,-2.633431 -0.631906,-1.08629 -1.566871,-2.704331 -2.077702,-3.595646 -0.51083,-0.891314 -1.44507,-2.509355 -2.076089,-3.595645 -0.631017,-1.08629 -1.816774,-3.137327 -2.635015,-4.557861 -0.818239,-1.420533 -2.146048,-3.722253 -2.950685,-5.114932 -4.826122,-8.353138 -4.702704,-8.149584 -5.44206,-8.975635 -0.79114,-0.883908 -2.238265,-1.686981 -3.445634,-1.912134 -0.627966,-0.117104 -5.784878,-0.140082 -5.784606,-0.02578 1e-4,0.04178 0.213873,0.210975 0.475053,0.37599 0.860895,0.543916 1.720833,1.448474 2.395166,2.519442 0.680591,1.080909 1.803785,3.007428 4.497543,7.714254 0.892687,1.559802 1.86247,3.24621 2.155072,3.747575 0.292602,0.501364 1.226374,2.119405 2.075049,3.595645 0.848673,1.476241 1.875685,3.253806 2.282245,3.950146 0.406561,0.69634 1.406702,2.428327 2.222534,3.84886 2.692856,4.688817 4.27332,7.422542 5.270121,9.115721 0.541129,0.919169 1.658138,2.85626 2.482241,4.304647 0.824104,1.448386 1.885506,3.29432 2.358673,4.102074 0.473167,0.807754 1.646117,2.836002 2.606555,4.507218 0.96044,1.671215 2.735537,4.747771 3.94466,6.836791 2.22333,3.841279 5.05784,8.757888 8.40858,14.585158 1.00902,1.75477 2.22557,3.85139 2.70342,4.65914 0.47787,0.80776 0.98312,1.67375 1.12279,1.92443 0.13967,0.25068 0.85884,1.5041 1.59816,2.78536 0.73932,1.28127 2.26348,3.92483 3.38701,5.87458 1.12353,1.94975 2.36093,4.09194 2.74976,4.76043 0.38883,0.66849 1.04187,1.80795 1.45121,2.53214 0.40934,0.7242 1.27753,2.22829 1.92932,3.34244 0.6518,1.11414 1.88185,3.23354 2.73346,4.70978 0.8516,1.47624 1.8657,3.23102 2.25355,3.89951 0.38785,0.66848 1.25131,2.17258 1.9188,3.34243 0.66749,1.16985 1.50054,2.60558 1.85122,3.1905 0.35068,0.58493 1.28798,2.20297 2.08289,3.59565 0.7949,1.39268 2.15909,3.76276 3.03153,5.26686 0.87243,1.50409 1.73968,3.00819 1.92723,3.34243 0.18754,0.33424 1.03159,1.79276 1.87566,3.24114 0.84408,1.44839 1.84345,3.18038 2.22083,3.84886 0.37738,0.66849 1.15259,2.01306 1.72269,2.98793 1.35637,2.31945 6.18072,10.6823 7.24526,12.55944 0.45809,0.80776 1.22425,2.12954 1.70261,2.93729 0.47835,0.80776 1.46882,2.51695 2.20105,3.79822 0.73222,1.28126 2.46377,4.28945 3.84787,6.68486 1.38412,2.39541 3.0161,5.22128 3.62664,6.27972 0.61054,1.05844 1.32679,2.24348 1.59165,2.63343 1.22267,1.80009 2.84278,2.71651 5.11001,2.89049 0.98772,0.0758 4.79696,0.044 4.8817,-0.0407 z"
       id="path245" /></g></svg>
